# xmcd
#
# Track frame offsets: 
#        150
#        12268
#        28755
#        43136
#        52743
#        65738
#        78459
#        95780
#        108379
#        117468
#
# Disc length: 1739 seconds
#
# Revision: 0
# Processed by: cddbd v1.5.2PL0 Copyright (c) Steve Scherf et al.
# Submitted via: ExactAudioCopy v0.99pb3
#
DISCID=8606c90a
DTITLE=The Chuck Wagon Gang - Through The Years
DYEAR=2004
DGENRE=Gospel
TTITLE0=Tattler's Wagon
TTITLE1=Mansion Just Over The Hilltop
TTITLE2=Homecoming Day
TTITLE3=Lord Reach Down and Touch Me
TTITLE4=Kneel At The Cross
TTITLE5=Keep On The Sunnyside
TTITLE6=Angels Rock Me To Sleep
TTITLE7=God Put a Rainbow in the Clouds
TTITLE8=The Lord is My Shepherd
TTITLE9=After The Sunrise
EXTD=
EXTT0=
EXTT1=
EXTT2=
EXTT3=
EXTT4=
EXTT5=
EXTT6=
EXTT7=
EXTT8=
EXTT9=
PLAYORDER=
